<svg xmlns="http://www.w3.org/2000/svg" viewBox="0 0 300 420" fill="none" stroke="currentColor" stroke-width="1.4" stroke-linecap="round" stroke-linejoin="round">
  <!-- Hauptstiel -->
  <path d="M148 420 C145 378 138 336 142 292 C146 248 134 208 138 168 C142 128 130 90 134 50"/>
  <!-- Linker Ast 1 -->
  <path d="M141 355 C120 340 96 338 80 328"/>
  <path d="M88 335 C80 322 66 324 80 328 C84 318 98 326 88 335"/>
  <!-- Blatt links 1 -->
  <path d="M108 342 C100 330 88 334 80 328"/>
  <!-- Rechter Ast 1 -->
  <path d="M145 318 C164 304 184 300 198 292"/>
  <path d="M186 299 C194 286 208 288 198 292 C196 282 184 288 186 299"/>
  <!-- Linker Ast 2 -->
  <path d="M140 274 C118 260 94 258 78 248"/>
  <path d="M86 256 C78 242 64 244 78 248 C80 238 96 244 86 256"/>
  <!-- Rechter Ast 2 -->
  <path d="M143 240 C162 226 180 222 194 214"/>
  <path d="M182 222 C188 208 202 210 194 214 C192 204 180 210 182 222"/>
  <!-- Linker Ast 3 -->
  <path d="M139 200 C118 186 96 184 80 174"/>
  <path d="M88 182 C82 168 68 170 80 174 C82 164 96 170 88 182"/>
  <!-- Rechter Ast 3 -->
  <path d="M141 168 C158 155 174 150 186 142"/>
  <path d="M174 150 C180 136 194 138 186 142 C184 132 172 138 174 150"/>
  <!-- Spitze links -->
  <path d="M136 130 C118 116 104 112 92 102"/>
  <path d="M100 110 C94 96 80 98 92 102 C94 92 108 98 100 110"/>
  <!-- Spitze rechts -->
  <path d="M138 105 C152 92 164 86 174 78"/>
  <path d="M164 86 C170 72 182 74 174 78 C172 68 162 74 164 86"/>
  <!-- Gräser links -->
  <path d="M48 420 C46 396 42 372 50 354"/>
  <path d="M62 420 C60 398 58 376 66 360"/>
  <path d="M30 420 C30 402 26 384 34 368"/>
  <!-- Gräser rechts -->
  <path d="M226 420 C228 398 232 376 224 360"/>
  <path d="M240 420 C242 396 238 374 248 358"/>
  <path d="M212 420 C212 400 216 380 208 364"/>
  <!-- Kleine Detailblätter -->
  <path d="M136 380 C126 372 116 374 108 368"/>
  <path d="M118 373 C116 362 106 362 108 368 C112 360 120 365 118 373"/>
  <path d="M150 290 C162 282 170 278 176 270"/>
  <path d="M168 278 C174 266 184 268 176 270 C175 262 167 266 168 278"/>
</svg>
